<?xml version="1.0" encoding="UTF-8"?>
<svg width="48px" height="41px" viewBox="0 0 48 41" version="1.1" xmlns="http://www.w3.org/2000/svg" xmlns:xlink="http://www.w3.org/1999/xlink">
    <!-- Generator: Sketch 52.6 (67491) - http://www.bohemiancoding.com/sketch -->
    <title>img</title>
    <desc>Created with Sketch.</desc>
    <defs>
        <polygon id="path-1" points="0.0004 0.801 48 0.801 48 40 0.0004 40"></polygon>
    </defs>
    <g id="img" stroke="none" stroke-width="1" fill="none" fill-rule="evenodd">
        <g id="icon-photo">
            <g id="Group-3" transform="translate(0.000000, 0.199000)">
                <mask id="mask-2" fill="white">
                    <use xlink:href="#path-1"></use>
                </mask>
                <g id="Clip-2"></g>
                <path d="M46.3984,36.133 C46.3984,37.387 45.3824,38.403 44.1324,38.403 L3.8674,38.403 C2.6174,38.403 1.6024,37.383 1.6024,36.133 L1.6024,12.641 C1.6024,11.406 2.6054,10.403 3.8394,10.403 L11.7424,10.403 L14.9404,2.403 L33.0584,2.403 L36.2574,10.403 L44.1604,10.403 C45.3944,10.403 46.3984,11.406 46.3984,12.641 L46.3984,36.133 Z M6.3984,8.801 L8.0004,8.801 L8.0004,6.403 L6.3984,6.403 L6.3984,8.801 Z M44.1604,8.801 L37.3394,8.801 L34.1404,0.801 L13.8584,0.801 L10.6604,8.801 L9.6024,8.801 L9.6024,4.801 L4.8004,4.801 L4.8004,8.801 L3.8394,8.801 C1.7234,8.801 0.0004,10.524 0.0004,12.641 L0.0004,36.133 C0.0004,38.266 1.7334,40 3.8674,40 L44.1324,40 C46.2654,40 48.0004,38.266 48.0004,36.133 L48.0004,12.641 C48.0004,10.524 46.2774,8.801 44.1604,8.801 Z" id="Fill-1" fill="#FE635F" mask="url(#mask-2)"></path>
            </g>
            <path d="M24,35.3984 C16.941,35.3984 11.199,29.6564 11.199,22.6014 C11.199,15.5434 16.941,9.8004 24,9.8004 C31.059,9.8004 36.801,15.5434 36.801,22.6014 C36.801,29.6564 31.059,35.3984 24,35.3984 M24,8.1994 C16.059,8.1994 9.602,14.6604 9.602,22.6014 C9.602,30.5394 16.059,37.0004 24,37.0004 C31.941,37.0004 38.398,30.5394 38.398,22.6014 C38.398,14.6604 31.941,8.1994 24,8.1994" id="Fill-4" fill="#FE635F"></path>
            <path d="M24,30.6016 C19.59,30.6016 16,27.0116 16,22.6016 C16,18.1866 19.59,14.6016 24,14.6016 C28.41,14.6016 32,18.1866 32,22.6016 C32,27.0116 28.41,30.6016 24,30.6016 M24,12.9996 C18.707,12.9996 14.398,17.3056 14.398,22.6016 C14.398,27.8946 18.707,32.1996 24,32.1996 C29.293,32.1996 33.602,27.8946 33.602,22.6016 C33.602,17.3056 29.293,12.9996 24,12.9996" id="Fill-6" fill="#FE635F"></path>
            <path d="M41.6016,17 C40.7186,17 39.9996,16.281 39.9996,15.398 C39.9996,14.52 40.7186,13.801 41.6016,13.801 C42.4806,13.801 43.1996,14.52 43.1996,15.398 C43.1996,16.281 42.4806,17 41.6016,17 M41.6016,12.199 C39.8356,12.199 38.3986,13.637 38.3986,15.398 C38.3986,17.164 39.8356,18.602 41.6016,18.602 C43.3636,18.602 44.8006,17.164 44.8006,15.398 C44.8006,13.637 43.3636,12.199 41.6016,12.199" id="Fill-8" fill="#FE635F"></path>
        </g>
    </g>
</svg>