<?xml version="1.0" encoding="UTF-8"?>
<svg width="40px" height="40px" viewBox="0 0 40 40" version="1.1" xmlns="http://www.w3.org/2000/svg" xmlns:xlink="http://www.w3.org/1999/xlink">
    <!-- Generator: Sketch 52.6 (67491) - http://www.bohemiancoding.com/sketch -->
    <title>star</title>
    <desc>Created with Sketch.</desc>
    <defs>
        <polygon id="path-1" points="0 0 40 0 40 38 0 38"></polygon>
        <linearGradient x1="50%" y1="0%" x2="50%" y2="100%" id="linearGradient-3">
            <stop stop-color="#F58D8D" offset="0%"></stop>
            <stop stop-color="#EA5757" offset="100%"></stop>
        </linearGradient>
    </defs>
    <g id="star" stroke="none" stroke-width="1" fill="none" fill-rule="evenodd">
        <g id="Group-3" transform="translate(0.000000, 1.000000)">
            <mask id="mask-2" fill="white">
                <use xlink:href="#path-1"></use>
            </mask>
            <g id="Clip-2"></g>
            <path d="M39.1336749,17.2220074 C39.9196451,16.4575997 40.1969875,15.3447411 39.8575685,14.3053451 C39.5171483,13.2659491 38.633057,12.5253671 37.5417098,12.3705 L27.857756,10.9747113 C27.4432443,10.9121689 27.0878056,10.6570354 26.9035782,10.2877371 L22.5742341,1.58639427 C22.0896359,0.608547991 21.0994135,0 20.0010577,0 C18.9017007,0 17.9164845,0.608547991 17.4268802,1.58639427 L13.0975361,10.2877371 C12.9133087,10.6570354 12.5578699,10.9161398 12.1433582,10.9747113 L2.4594044,12.3705 C1.36805725,12.5253671 0.479960986,13.2659491 0.140542009,14.3053451 C-0.19587326,15.3447411 0.0814690898,16.4615706 0.867439288,17.2220074 L7.87609073,23.9924761 C8.1734578,24.2833481 8.31062712,24.6983123 8.23953937,25.1043419 L6.58549763,34.6683735 C6.44131966,35.5102147 6.66359403,36.3322013 7.21127008,36.9745023 C8.06832803,37.9841162 9.55816708,38.290872 10.7506391,37.6664403 L19.4103285,33.1524636 C19.7737772,32.9608652 20.2273371,32.9648362 20.5907857,33.1524636 L29.2544801,37.6664403 C29.6729967,37.8858352 30.1225517,38 30.5881264,38 C31.4331695,38 32.2381632,37.6277235 32.7898442,36.9745023 C33.3375202,36.3322013 33.5607958,35.5102147 33.4156166,34.6683735 L31.7615749,25.1043419 C31.6904871,24.6983123 31.8276564,24.2833481 32.1250235,23.9924761 L39.1336749,17.2220074 Z" id="Fill-1" fill="url(#linearGradient-3)" mask="url(#mask-2)"></path>
        </g>
    </g>
</svg>