<?xml version="1.0" encoding="UTF-8"?>
<svg width="40px" height="40px" viewBox="0 0 40 40" version="1.1" xmlns="http://www.w3.org/2000/svg" xmlns:xlink="http://www.w3.org/1999/xlink">
    <!-- Generator: Sketch 52.6 (67491) - http://www.bohemiancoding.com/sketch -->
    <title>star2</title>
    <desc>Created with Sketch.</desc>
    <defs>
        <polygon id="path-1" points="0 0 40 0 40 38 0 38"></polygon>
        <linearGradient x1="50%" y1="0%" x2="50%" y2="96.9133851%" id="linearGradient-3">
            <stop stop-color="#F68E8E" offset="0%"></stop>
            <stop stop-color="#E95757" offset="100%"></stop>
        </linearGradient>
    </defs>
    <g id="star2" stroke="none" stroke-width="1" fill="none" fill-rule="evenodd">
        <g id="Group-3" transform="translate(0.000000, 1.000000)">
            <mask id="mask-2" fill="white">
                <use xlink:href="#path-1"></use>
            </mask>
            <g id="Clip-2"></g>
            <path d="M30.1809196,25.3770149 L31.8349776,34.9403036 C31.9170797,35.4217938 31.7298468,35.8784649 31.3303497,36.1693445 C30.9318539,36.4562531 30.435236,36.4919926 29.9966904,36.2626643 L21.3339122,31.7485696 C20.9193964,31.5321472 20.4578221,31.4229433 20.0012541,31.4229433 C19.5426835,31.4229433 19.0821105,31.5321472 18.6635897,31.7485696 L10.0038153,36.2626643 C9.56627087,36.4919926 9.06965298,36.4562531 8.67015592,36.1693445 C8.27166011,35.8784649 8.08342591,35.4217938 8.16452682,34.9403036 L9.82058729,25.3770149 C9.97978536,24.4547378 9.67140167,23.5116127 8.9935583,22.856389 L1.98483806,16.0857434 C1.6334008,15.7442328 1.51325131,15.2597643 1.66544066,14.7981294 C1.81662877,14.3325234 2.20110714,14.0108681 2.68671133,13.9413747 L12.3727627,12.5455495 C13.3079262,12.413512 14.1149303,11.8317527 14.533451,10.9898895 L18.8618364,2.28831936 C19.0821105,1.84951799 19.5066387,1.58941401 20.0012541,1.58941401 C20.4928657,1.58941401 20.9153914,1.84951799 21.1346643,2.28831936 L25.4680559,10.9898895 C25.8825716,11.8317527 26.6925794,12.413512 27.6267417,12.5455495 L37.3107906,13.9413747 C37.7993985,14.0108681 38.1828756,14.3325234 38.3320612,14.7981294 C38.4842506,15.2597643 38.3671048,15.7442328 38.0146663,16.0857434 L31.0059461,22.856389 C30.329104,23.5116127 30.0207203,24.4507668 30.1809196,25.3770149 Z M39.1330578,17.2214646 C39.920037,16.4620007 40.1973821,15.345142 39.8569585,14.3057188 C39.516535,13.2662957 38.6294312,12.5256943 37.5420783,12.3708232 L27.8540245,10.974998 C27.4435137,10.916425 27.0870702,10.656321 26.9038423,10.2880059 L22.5734544,1.58544296 C22.0848465,0.60856389 21.0996206,0 20.0012541,0 C18.900885,0 17.9156592,0.60856389 17.4270512,1.58544296 L13.0976646,10.2880059 C12.9124342,10.656321 12.5539882,10.916425 12.1424762,10.974998 L2.45542356,12.3708232 C1.36807068,12.5256943 0.478964452,13.2662957 0.140543389,14.3057188 C-0.195875183,15.345142 0.0814698895,16.4620007 0.867447802,17.2214646 L7.87616804,23.9931029 C8.17353803,24.2839825 8.30970745,24.6989576 8.23861901,25.1059905 L6.58556227,34.6732503 C6.40133306,35.7474201 6.83587371,36.8096768 7.72698243,37.4529874 C8.61408616,38.0933197 9.77352874,38.1786974 10.7457384,37.6704026 L19.4105191,33.1523369 C19.776975,32.9627191 20.2195256,32.9627191 20.5909878,33.1523369 L29.249761,37.6704026 C29.6762917,37.890796 30.133861,38 30.5874254,38 C31.1821653,38 31.7688953,37.8143533 32.2735232,37.4529874 C33.1616282,36.8096768 33.5991726,35.7474201 33.4149434,34.6732503 L31.7568804,25.1059905 C31.6867932,24.6989576 31.8239639,24.2839825 32.1243376,23.997074 L39.1330578,17.2214646 Z" id="Fill-1" fill="url(#linearGradient-3)" mask="url(#mask-2)"></path>
        </g>
    </g>
</svg>